# xmcd
#
# Track frame offsets:
#	150
#	10220
#	22176
#	34581
#	44632
#	61893
#	80809
#	102693
#	118187
#	139629
#	152918
#	165535
#	171926
#	188006
#	200677
#	212777
#	222039
#	246293
#
# Disc length: 3477 seconds
#
# Revision: 0
# Processed by: cddbd v1.4PL0 Copyright (c) Steve Scherf et al.
# Submitted via: EasyCDDAExtractor 4.6.9.1
#
DISCID=0b0d9312
DTITLE=Lokalka - Archivni rocnik 1974
DYEAR=2002
DGENRE=Country
TTITLE0=Blues Vambereckeho spekacku
TTITLE1=Osobak
TTITLE2=Sadrovy trpaslik
TTITLE3=Pole s cukrovkou
TTITLE4=Zachytko
TTITLE5=Osado, ach osad
TTITLE6=Kdo vaha
TTITLE7=Lasko, mne ubyva sil
TTITLE8=Sulc
TTITLE9=Bazar
TTITLE10=Pumy
TTITLE11=Palice
TTITLE12=Nudisti
TTITLE13=Radioamater
TTITLE14=Nezachazej, slunce
TTITLE15=Perpetum mobile
TTITLE16=Leta jdou II
TTITLE17=Galanecka
EXTD=
EXTT0=
EXTT1=
EXTT2=
EXTT3=
EXTT4=
EXTT5=
EXTT6=
EXTT7=
EXTT8=
EXTT9=
EXTT10=
EXTT11=
EXTT12=
EXTT13=
EXTT14=
EXTT15=
EXTT16=
EXTT17=
PLAYORDER=
